<svg id="visual" viewBox="0 0 1920 100" width="1920" height="100" xmlns="http://www.w3.org/2000/svg" xmlns:xlink="http://www.w3.org/1999/xlink" version="1.1"><rect x="0" y="0" width="1920" height="100" fill="#e2f8f0"></rect><path d="M0 16L18.8 20.3C37.7 24.7 75.3 33.3 113 32.7C150.7 32 188.3 22 226 22.2C263.7 22.3 301.3 32.7 339 33.7C376.7 34.7 414.3 26.3 452 21.8C489.7 17.3 527.3 16.7 565 18.8C602.7 21 640.3 26 678 24.8C715.7 23.7 753.3 16.3 791 13.5C828.7 10.7 866.3 12.3 903.8 16.8C941.3 21.3 978.7 28.7 1016.2 28.5C1053.7 28.3 1091.3 20.7 1129 23.5C1166.7 26.3 1204.3 39.7 1242 43.7C1279.7 47.7 1317.3 42.3 1355 36.2C1392.7 30 1430.3 23 1468 23.3C1505.7 23.7 1543.3 31.3 1581 36.8C1618.7 42.3 1656.3 45.7 1694 43.2C1731.7 40.7 1769.3 32.3 1807 25.8C1844.7 19.3 1882.3 14.7 1901.2 12.3L1920 10L1920 101L1901.2 101C1882.3 101 1844.7 101 1807 101C1769.3 101 1731.7 101 1694 101C1656.3 101 1618.7 101 1581 101C1543.3 101 1505.7 101 1468 101C1430.3 101 1392.7 101 1355 101C1317.3 101 1279.7 101 1242 101C1204.3 101 1166.7 101 1129 101C1091.3 101 1053.7 101 1016.2 101C978.7 101 941.3 101 903.8 101C866.3 101 828.7 101 791 101C753.3 101 715.7 101 678 101C640.3 101 602.7 101 565 101C527.3 101 489.7 101 452 101C414.3 101 376.7 101 339 101C301.3 101 263.7 101 226 101C188.3 101 150.7 101 113 101C75.3 101 37.7 101 18.8 101L0 101Z" fill="#028585"></path><path d="M0 58L18.8 60C37.7 62 75.3 66 113 63.5C150.7 61 188.3 52 226 50.5C263.7 49 301.3 55 339 54.5C376.7 54 414.3 47 452 42.3C489.7 37.7 527.3 35.3 565 37.8C602.7 40.3 640.3 47.7 678 52C715.7 56.3 753.3 57.7 791 55.5C828.7 53.3 866.3 47.7 903.8 49.3C941.3 51 978.7 60 1016.2 64.3C1053.7 68.7 1091.3 68.3 1129 66.2C1166.7 64 1204.3 60 1242 60C1279.7 60 1317.3 64 1355 64.8C1392.7 65.7 1430.3 63.3 1468 62C1505.7 60.7 1543.3 60.3 1581 59.5C1618.7 58.7 1656.3 57.3 1694 58.7C1731.7 60 1769.3 64 1807 64.3C1844.7 64.7 1882.3 61.3 1901.2 59.7L1920 58L1920 101L1901.2 101C1882.3 101 1844.7 101 1807 101C1769.3 101 1731.7 101 1694 101C1656.3 101 1618.7 101 1581 101C1543.3 101 1505.7 101 1468 101C1430.3 101 1392.7 101 1355 101C1317.3 101 1279.7 101 1242 101C1204.3 101 1166.7 101 1129 101C1091.3 101 1053.7 101 1016.2 101C978.7 101 941.3 101 903.8 101C866.3 101 828.7 101 791 101C753.3 101 715.7 101 678 101C640.3 101 602.7 101 565 101C527.3 101 489.7 101 452 101C414.3 101 376.7 101 339 101C301.3 101 263.7 101 226 101C188.3 101 150.7 101 113 101C75.3 101 37.7 101 18.8 101L0 101Z" fill="#26b1a3"></path><path d="M0 59L18.8 63.8C37.7 68.7 75.3 78.3 113 78.7C150.7 79 188.3 70 226 68C263.7 66 301.3 71 339 70.3C376.7 69.7 414.3 63.3 452 64.2C489.7 65 527.3 73 565 76C602.7 79 640.3 77 678 75C715.7 73 753.3 71 791 69.5C828.7 68 866.3 67 903.8 70C941.3 73 978.7 80 1016.2 82C1053.7 84 1091.3 81 1129 78.8C1166.7 76.7 1204.3 75.3 1242 72.8C1279.7 70.3 1317.3 66.7 1355 65C1392.7 63.3 1430.3 63.7 1468 65C1505.7 66.3 1543.3 68.7 1581 71.7C1618.7 74.7 1656.3 78.3 1694 79.2C1731.7 80 1769.3 78 1807 75.7C1844.7 73.3 1882.3 70.7 1901.2 69.3L1920 68L1920 101L1901.2 101C1882.3 101 1844.7 101 1807 101C1769.3 101 1731.7 101 1694 101C1656.3 101 1618.7 101 1581 101C1543.3 101 1505.7 101 1468 101C1430.3 101 1392.7 101 1355 101C1317.3 101 1279.7 101 1242 101C1204.3 101 1166.7 101 1129 101C1091.3 101 1053.7 101 1016.2 101C978.7 101 941.3 101 903.8 101C866.3 101 828.7 101 791 101C753.3 101 715.7 101 678 101C640.3 101 602.7 101 565 101C527.3 101 489.7 101 452 101C414.3 101 376.7 101 339 101C301.3 101 263.7 101 226 101C188.3 101 150.7 101 113 101C75.3 101 37.7 101 18.8 101L0 101Z" fill="#50debc"></path></svg>