<svg width="45" height="45" viewBox="0 0 45 45" fill="none" xmlns="http://www.w3.org/2000/svg">
<path d="M42.1875 4.82141H2.81249C2.59151 4.82141 2.41071 5.00221 2.41071 5.2232V8.43748C2.41071 8.65846 2.59151 8.83927 2.81249 8.83927H42.1875C42.4085 8.83927 42.5893 8.65846 42.5893 8.43748V5.2232C42.5893 5.00221 42.4085 4.82141 42.1875 4.82141ZM42.1875 36.1607H2.81249C2.59151 36.1607 2.41071 36.3415 2.41071 36.5625V39.7768C2.41071 39.9978 2.59151 40.1786 2.81249 40.1786H42.1875C42.4085 40.1786 42.5893 39.9978 42.5893 39.7768V36.5625C42.5893 36.3415 42.4085 36.1607 42.1875 36.1607ZM42.1875 20.4911H2.81249C2.59151 20.4911 2.41071 20.6719 2.41071 20.8928V24.1071C2.41071 24.3281 2.59151 24.5089 2.81249 24.5089H42.1875C42.4085 24.5089 42.5893 24.3281 42.5893 24.1071V20.8928C42.5893 20.6719 42.4085 20.4911 42.1875 20.4911Z" fill="#028585"/>
</svg>
